<?xml version="1.0" encoding="UTF-8" standalone="no"?>
<!DOCTYPE svg PUBLIC "-//W3C//DTD SVG 1.1//EN" "http://www.w3.org/Graphics/SVG/1.1/DTD/svg11.dtd">
<svg width="100%" height="100%" viewBox="0 0 300 301" version="1.1" xmlns="http://www.w3.org/2000/svg" xmlns:xlink="http://www.w3.org/1999/xlink" xml:space="preserve" xmlns:serif="http://www.serif.com/" style="fill-rule:evenodd;clip-rule:evenodd;stroke-linejoin:round;stroke-miterlimit:2;">
    <path d="M287.45,135L270,135L270,103.66C270,96.13 263.87,90 256.34,90L240,90L240,77.93L237.53,75.46C237.52,75.46 237.52,75.45 237.52,75.45L162.07,0L40,0L40,55L13.66,55C6.13,55 0,61.13 0,68.66L0,287.11L0.03,287.11C0,289.93 0.88,292.68 2.64,294.99C5.09,298.19 8.8,300.02 12.83,300.02L236.62,300.02C242.4,300.02 247.49,296.13 248.87,290.95L300,150.75L300,149.87C300,141.25 294.72,135 287.45,135ZM256.34,100C258.36,100 260,101.64 260,103.66L260,135L240,135L240,100L256.34,100ZM165,17.08L222.93,75L165,75L165,17.08ZM50,10L155,10L155,85L230,85L230,135L63.65,135C62.94,135 62.23,135.06 61.54,135.18C56.67,135.99 52.61,139.54 51.4,144.07L50,147.93L50,10ZM10,68.66C10,66.64 11.65,65 13.66,65L40,65L40,175.18L10,257L10,68.66ZM239.35,287.93C239.02,289.15 237.9,290.01 236.63,290.01L12.83,290.01C11.61,290.01 10.9,289.31 10.59,288.9C10.27,288.49 9.79,287.62 9.97,286.86L40,204.5L40,204.53L60.8,147.51L60.93,147.1C61.26,145.88 62.39,145.02 63.65,145.02L287.45,145.02C289.35,145.02 289.84,147.75 289.96,149.12L239.35,287.93Z" style="fill-opacity:0.5;fill-rule:nonzero;"/>
    <path d="M80,85L130,85C132.76,85 135,82.76 135,80C135,77.24 132.76,75 130,75L80,75C77.24,75 75,77.24 75,80C75,82.77 77.24,85 80,85Z" style="fill-opacity:0.7;fill-rule:nonzero;"/>
    <path d="M80,50L130,50C132.76,50 135,47.77 135,45C135,42.23 132.76,40 130,40L80,40C77.24,40 75,42.23 75,45C75,47.77 77.24,50 80,50Z" style="fill-opacity:0.7;fill-rule:nonzero;"/>
    <path d="M80,120L200,120C202.76,120 205,117.76 205,115C205,112.24 202.76,110 200,110L80,110C77.24,110 75,112.24 75,115C75,117.76 77.24,120 80,120Z" style="fill-opacity:0.7;fill-rule:nonzero;"/>
</svg>
